<svg width="1200" height="900" viewBox="0 0 1200 900" fill="none" xmlns="http://www.w3.org/2000/svg">
  <rect width="1200" height="900" rx="48" fill="#FCF8F6"/>
  <rect x="72" y="84" width="1056" height="732" rx="34" fill="#FFFDFC"/>
  <rect x="110" y="124" width="232" height="652" rx="28" fill="#F7EFEA"/>
  <rect x="378" y="124" width="712" height="132" rx="28" fill="#FFF4EE"/>
  <rect x="378" y="290" width="332" height="220" rx="28" fill="#FFFFFF"/>
  <rect x="758" y="290" width="332" height="220" rx="28" fill="#FFFFFF"/>
  <rect x="378" y="544" width="712" height="232" rx="28" fill="#FFFFFF"/>
  <circle cx="226" cy="198" r="42" fill="#C45A74" fill-opacity="0.16"/>
  <rect x="158" y="286" width="136" height="14" rx="7" fill="#2B2220" fill-opacity="0.88"/>
  <rect x="158" y="320" width="118" height="10" rx="5" fill="#8A7770" fill-opacity="0.58"/>
  <rect x="158" y="388" width="136" height="52" rx="18" fill="#FFFFFF"/>
  <rect x="158" y="458" width="136" height="52" rx="18" fill="#FFFFFF"/>
  <rect x="158" y="528" width="136" height="52" rx="18" fill="#FFFFFF"/>
  <text x="422" y="190" fill="#2B2220" font-family="Georgia, serif" font-size="50">Planning Dashboard</text>
  <text x="424" y="224" fill="#816D66" font-family="Arial, sans-serif" font-size="22">Guests, RSVPs, budget, checklist, and the invitation story working together.</text>
  <rect x="422" y="336" width="244" height="16" rx="8" fill="#2B2220" fill-opacity="0.88"/>
  <rect x="422" y="372" width="180" height="10" rx="5" fill="#8A7770" fill-opacity="0.56"/>
  <rect x="422" y="410" width="216" height="64" rx="22" fill="#FBEAED"/>
  <rect x="804" y="336" width="214" height="16" rx="8" fill="#2B2220" fill-opacity="0.88"/>
  <rect x="804" y="372" width="150" height="10" rx="5" fill="#8A7770" fill-opacity="0.56"/>
  <circle cx="924" cy="430" r="42" fill="#EFF3EC"/>
  <path d="M432 608H1034" stroke="#E8D8CF" stroke-width="14" stroke-linecap="round"/>
  <path d="M432 664H964" stroke="#F2E6DE" stroke-width="14" stroke-linecap="round"/>
  <path d="M432 720H1006" stroke="#EAE0F6" stroke-width="14" stroke-linecap="round"/>
</svg>
