<svg width="1200" height="900" viewBox="0 0 1200 900" fill="none" xmlns="http://www.w3.org/2000/svg">
  <rect width="1200" height="900" rx="48" fill="#FCF8F6"/>
  <rect x="44" y="44" width="1112" height="812" rx="38" fill="url(#paint0_linear)"/>
  <rect x="100" y="116" width="420" height="604" rx="34" fill="#FFF8F3"/>
  <rect x="572" y="116" width="528" height="318" rx="34" fill="#FFFDFC"/>
  <rect x="572" y="468" width="248" height="252" rx="34" fill="#FFF5EF"/>
  <rect x="852" y="468" width="248" height="252" rx="34" fill="#FFFDFC"/>
  <circle cx="240" cy="244" r="82" fill="#F8DDE6"/>
  <rect x="174" y="344" width="274" height="18" rx="9" fill="#2B2220" fill-opacity="0.88"/>
  <rect x="174" y="380" width="204" height="12" rx="6" fill="#856B63" fill-opacity="0.64"/>
  <rect x="174" y="428" width="274" height="142" rx="24" fill="url(#paint1_linear)"/>
  <rect x="626" y="164" width="168" height="16" rx="8" fill="#2B2220" fill-opacity="0.88"/>
  <rect x="626" y="198" width="292" height="12" rx="6" fill="#856B63" fill-opacity="0.56"/>
  <rect x="626" y="246" width="420" height="132" rx="24" fill="url(#paint2_linear)"/>
  <rect x="616" y="512" width="160" height="16" rx="8" fill="#2B2220" fill-opacity="0.88"/>
  <rect x="616" y="548" width="160" height="86" rx="26" fill="#F6E5D7"/>
  <rect x="896" y="512" width="160" height="16" rx="8" fill="#2B2220" fill-opacity="0.88"/>
  <circle cx="976" cy="602" r="54" fill="#E8E0F5"/>
  <path d="M203 238C219 211 254 200 282 215C310 230 320 265 304 292C288 319 253 330 225 315C197 300 187 265 203 238Z" fill="#C45A74" fill-opacity="0.18"/>
  <path d="M670 280C735 210 852 216 914 280C962 329 977 410 956 470" stroke="#C9A574" stroke-width="8" stroke-linecap="round"/>
  <rect x="118" y="612" width="166" height="62" rx="31" fill="#2B2220"/>
  <rect x="300" y="612" width="180" height="62" rx="31" fill="#FFFFFF"/>
  <text x="145" y="651" fill="#FFFFFF" font-family="Georgia, serif" font-size="26">Start Free</text>
  <text x="332" y="651" fill="#2B2220" font-family="Arial, sans-serif" font-size="24">Preview Demo</text>
  <defs>
    <linearGradient id="paint0_linear" x1="136" y1="92" x2="1044" y2="800" gradientUnits="userSpaceOnUse">
      <stop stop-color="#FFFDFC"/>
      <stop offset="1" stop-color="#FAF0EA"/>
    </linearGradient>
    <linearGradient id="paint1_linear" x1="174" y1="428" x2="448" y2="570" gradientUnits="userSpaceOnUse">
      <stop stop-color="#FCE8EE"/>
      <stop offset="1" stop-color="#F7DCC9"/>
    </linearGradient>
    <linearGradient id="paint2_linear" x1="626" y1="246" x2="1046" y2="378" gradientUnits="userSpaceOnUse">
      <stop stop-color="#EFF4EB"/>
      <stop offset="1" stop-color="#E9DDF8"/>
    </linearGradient>
  </defs>
</svg>
