<svg width="1200" height="900" viewBox="0 0 1200 900" fill="none" xmlns="http://www.w3.org/2000/svg">
  <rect width="1200" height="900" rx="48" fill="#FFF8F4"/>
  <rect x="90" y="110" width="1020" height="680" rx="34" fill="#FFFDFB"/>
  <path d="M210 248C330 120 520 116 654 238C726 304 765 372 798 486" stroke="#C45A74" stroke-width="10" stroke-linecap="round"/>
  <rect x="164" y="196" width="874" height="132" rx="28" fill="url(#paint0_linear)"/>
  <text x="218" y="272" fill="#2B2220" font-family="Georgia, serif" font-size="58">Amaya &amp; Kavin</text>
  <text x="220" y="310" fill="#816D66" font-family="Arial, sans-serif" font-size="24">A wedding invitation experience with RSVP, details, and story.</text>
  <rect x="164" y="370" width="268" height="308" rx="28" fill="#FBEAED"/>
  <rect x="466" y="370" width="268" height="308" rx="28" fill="#F4EFE7"/>
  <rect x="768" y="370" width="268" height="308" rx="28" fill="#EFF3EC"/>
  <circle cx="298" cy="462" r="44" fill="#FFFFFF"/>
  <circle cx="600" cy="462" r="44" fill="#FFF8F3"/>
  <circle cx="902" cy="462" r="44" fill="#FFFFFF"/>
  <text x="225" y="546" fill="#2B2220" font-family="Georgia, serif" font-size="34">Envelope</text>
  <text x="527" y="546" fill="#2B2220" font-family="Georgia, serif" font-size="34">RSVP</text>
  <text x="828" y="546" fill="#2B2220" font-family="Georgia, serif" font-size="34">Table Finder</text>
  <rect x="216" y="576" width="168" height="10" rx="5" fill="#9A867D" fill-opacity="0.55"/>
  <rect x="518" y="576" width="168" height="10" rx="5" fill="#9A867D" fill-opacity="0.55"/>
  <rect x="820" y="576" width="168" height="10" rx="5" fill="#9A867D" fill-opacity="0.55"/>
  <defs>
    <linearGradient id="paint0_linear" x1="164" y1="196" x2="1038" y2="328" gradientUnits="userSpaceOnUse">
      <stop stop-color="#FFF0F4"/>
      <stop offset="1" stop-color="#F9F0E4"/>
    </linearGradient>
  </defs>
</svg>
